ply
format ascii 1.0
comment Created by Blender 2.78 (sub 0) - www.blender.org, source file: ''
element vertex 10
property float x
property float y
property float z
property uchar red
property uchar green
property uchar blue
element face 6
property list uchar uint vertex_indices
end_header
-1.000000 -1.000000 1.000000 8 3 255
-1.000000 -1.000000 -1.000000 5 0 255
1.000000 -1.000000 -1.000000 5 0 255
1.000000 -1.000000 1.000000 5 0 255
-1.000000 1.000000 0.999999 5 0 255
1.000000 1.000000 1.000000 5 0 255
1.000000 1.000000 -1.000000 5 0 255
-0.999999 1.000000 -1.000001 5 0 255
-1.000000 -1.000000 1.000000 5 0 255
-0.999999 1.000000 -1.000001 10 5 255
4 0 1 2 3
4 4 5 6 7
4 8 4 9 1
4 1 7 6 2
4 2 6 5 3
4 4 8 3 5
